<?xml version="1.0" encoding="UTF-8"?>
<svg id="logosandtypes_com" data-name="logosandtypes com" xmlns="http://www.w3.org/2000/svg" viewBox="0 0 150 150">
  <defs>
    <style>
      .cls-1 {
        fill: #03eab3;
      }

      .cls-2 {
        fill: none;
      }
    </style>
  </defs>
  <path class="cls-2" d="M0,0H150V150H0V0Z"/>
  <path d="M96.73,12.88H41.49c-3.86,0,6.11,13.11,6.11,13.11h49.11c6.51,0,11.79,5.28,11.8,11.79v51.11c0,6.51-5.28,11.79-11.8,11.79h-10.49c-.96,0-1.75,.78-1.75,1.75,0,0,0,0,0,0v9.61c0,.97,.78,1.75,1.75,1.75h10.49c13.75,0,24.9-11.15,24.9-24.9V37.78c0-13.75-11.15-24.9-24.9-24.9Z"/>
  <path class="cls-1" d="M66.69,139.52l-26.97-20.7c-3.45-2.64-5.47-6.74-5.47-11.08V19.88c0-5.79,6.65-9.07,11.25-5.54l26.97,20.7c3.45,2.65,5.47,6.74,5.47,11.09v87.86c0,5.79-6.65,9.07-11.25,5.54h0Z"/>
</svg>